PathFileType	4	(X/Y/Z)	C:\Users\Willi\SynologyDrive\Deimel_MSc_Deadlift\Athlete_03\Athlete_3_22_07_06\dl_80\marker_experimental.trc
DataRate	CameraRate	NumFrames	NumMarkers	Units	OrigDataRate	OrigDataStartFrame	OrigNumFrames
200.000000	200.000000	4	59	mm	200.000000	1240	3308
Frame#	Time	BL			BR			GLAB			RFHD			LFHD			C7			T6			SPINMOL			SPINM2			SPINM3			T12			BELTOL			BELT2			BELT3			SACROL			SACR2			SACR3			LTHOL			LTH2			LTH3			LSHAOL			LSHA2			LSHA3			LHEE			LTOE			LM5			RTHOL			RTH2			RTH3			RSHAOL			RSHA2			RSHA3			RHEE			RTOE			RM5			STRN			XIPH			LACR			LUAOL			LUA2			LUA3			LLAOL			LLA2			LLA3			LWRU			RACR			RUAOL			RUA2			RUA3			RLAOL			RLA2			RLA3			RWRU			USERMO0			USERMO1			USERMO2			USERMO3			USERMO4			USERMO5			
		X1	Y1	Z1	X2	Y2	Z2	X3	Y3	Z3	X4	Y4	Z4	X5	Y5	Z5	X6	Y6	Z6	X7	Y7	Z7	X8	Y8	Z8	X9	Y9	Z9	X10	Y10	Z10	X11	Y11	Z11	X12	Y12	Z12	X13	Y13	Z13	X14	Y14	Z14	X15	Y15	Z15	X16	Y16	Z16	X17	Y17	Z17	X18	Y18	Z18	X19	Y19	Z19	X20	Y20	Z20	X21	Y21	Z21	X22	Y22	Z22	X23	Y23	Z23	X24	Y24	Z24	X25	Y25	Z25	X26	Y26	Z26	X27	Y27	Z27	X28	Y28	Z28	X29	Y29	Z29	X30	Y30	Z30	X31	Y31	Z31	X32	Y32	Z32	X33	Y33	Z33	X34	Y34	Z34	X35	Y35	Z35	X36	Y36	Z36	X37	Y37	Z37	X38	Y38	Z38	X39	Y39	Z39	X40	Y40	Z40	X41	Y41	Z41	X42	Y42	Z42	X43	Y43	Z43	X44	Y44	Z44	X45	Y45	Z45	X46	Y46	Z46	X47	Y47	Z47	X48	Y48	Z48	X49	Y49	Z49	X50	Y50	Z50	X51	Y51	Z51	X52	Y52	Z52	X53	Y53	Z53	X54	Y54	Z54	X55	Y55	Z55	X56	Y56	Z56	X57	Y57	Z57	X58	Y58	Z58	X59	Y59	Z59	

1241	6.2	132.7820281982422	246.1982269287111	-2314.274169921875	192.5390472412109	248.6311645507812	-91.70473480224608	573.2635498046875	783.2479858398439	-1172.557250976562	577.2908325195312	846.8842773437501	-1096.93115234375	580.2212524414062	843.7643432617189	-1252.493041992188	431.3717041015625	991.2553710937501	-1183.268920898438	234.4778137207031	1047.6650390625	-1198.184692382812	200.2480773925781	1053.521484375	-1201.555786132812	138.8131256103516	1051.724365234375	-1150.342895507812	138.1308288574219	1050.37158203125	-1200.12548828125	87.48344421386719	1038.8984375	-1201.13134765625	28.34299087524414	1055.966430664062	-1203.873046875	-29.97563552856445	1034.068237304688	-1153.8818359375	-31.68015289306641	1039.338989257812	-1203.67626953125	-106.0186920166016	986.2633666992189	-1225.206420898438	-95.89890289306641	987.2064819335939	-1175.243774414062	-154.7855987548828	960.7654418945314	-1188.132568359375	-4.450221061706543	723.5870361328126	-1444.197387695312	-19.42111206054688	645.3396606445314	-1435.473388671875	24.67549514770508	668.9498901367189	-1443.484008789062	76.84383392333984	340.6004943847657	-1444.71337890625	33.74191665649414	275.430877685547	-1433.917114257812	83.14205169677734	279.3696594238282	-1436.307250976562	-2.229420185089111	65.59015655517587	-1337.318725585938	209.1167297363281	75.45401763916024	-1352.032958984375	159.4177093505859	53.06300735473642	-1455.08740234375	-3.446308612823486	686.1727294921876	-978.6463012695312	68.91305541992188	653.0590820312501	-971.052490234375	24.43791389465332	630.5026245117189	-977.0120849609375	59.26684188842773	335.0596618652344	-978.4296264648438	97.24600219726562	265.4279785156251	-983.328125	48.76465225219727	275.9973449707032	-991.8269653320312	-0.5158168077468872	65.42739105224616	-1098.106567382812	209.5606689453125	70.21923065185554	-1056.417236328125	150.8363494873047	65.10056304931646	-965.4525756835938	362.4659118652344	830.2888793945314	-1191.539306640625	213.7380218505859	779.2413940429689	-1190.441650390625	393.3910827636719	871.4749145507814	-1384.440795898438	329.2866821289062	754.9184570312501	-1449.54736328125	285.9365844726562	708.9790039062501	-1470.810302734375	325.2019653320312	689.3287963867189	-1443.817138671875	263.7318420410156	480.3234252929689	-1451.56591796875	230.0437469482422	426.6295166015626	-1468.66796875	257.7619018554688	420.4582519531251	-1427.670043945312	216.0880889892578	334.9451904296876	-1455.056518554688	388.6121520996094	863.1542358398439	-1001.519714355469	318.2740478515625	714.2387084960939	-969.6209716796875	312.1285095214844	657.0059204101564	-1001.115234375	294.3761901855469	654.5061645507814	-953.9502563476562	249.5509338378906	466.2686157226563	-961.209716796875	246.1784210205078	409.4919128417969	-992.0020751953125	226.2345886230469	408.5021057128907	-944.974609375	208.7082061767578	335.0075683593751	-945.90087890625	0.03716479986906052	0.007170709781348709	-0.06349450349807739	0.01794059947133064	0.06931640207767487	-0.06880509853363037	0.02198410034179688	0.02884729951620102	-0.06251689791679382	0.0402694009244442	2.12581992149353	-2.037630081176758	1.967700004577637	2.90612006187439	-1.891639947891235	2.75750994682312	0	0	
1242	6.205	132.9488372802734	246.0723724365236	-2314.2705078125	192.5553436279297	248.5126037597656	-91.67880249023436	573.576171875	783.9733886718751	-1172.533081054688	577.6180419921875	847.6654663085939	-1096.936645507812	580.5143432617188	844.4677124023439	-1252.516357421875	431.3050842285156	991.7141723632814	-1183.377563476562	234.3227996826172	1047.846801757812	-1198.14453125	200.1636962890625	1053.588500976562	-1201.486694335938	138.7806396484375	1051.73291015625	-1150.212036132812	138.0508270263672	1050.351318359375	-1199.991821289062	87.61550903320312	1038.936889648438	-1200.939331054688	28.67123794555664	1055.93505859375	-1203.638916015625	-29.63512992858887	1034.08349609375	-1153.6171875	-31.3604564666748	1039.3486328125	-1203.411254882812	-105.7500381469727	986.4432983398439	-1224.907470703125	-95.6026611328125	987.3683471679689	-1174.941284179688	-154.5138854980469	960.9660034179689	-1187.7939453125	-4.552326202392578	723.6989135742189	-1444.036376953125	-19.56791305541992	645.4724731445314	-1435.223022460938	24.53600120544434	669.0448608398439	-1443.3115234375	76.69038391113281	340.6219177246095	-1444.584594726562	33.62866592407227	275.4222106933595	-1433.813110351562	83.02585601806641	279.3933410644532	-1436.20166015625	-2.245236396789551	65.57486724853524	-1337.310424804688	209.1114654541016	75.44607543945321	-1352.036499023438	159.4127502441406	53.05426025390634	-1455.095092773438	-3.2055344581604	686.2874145507814	-978.444580078125	69.13491821289062	653.1047973632814	-970.9261474609375	24.63021469116211	630.5894165039064	-976.86767578125	59.37574768066406	335.0146179199219	-978.3324584960938	97.35991668701172	265.3940734863282	-983.2730712890625	48.86676788330078	275.9567260742188	-991.7193603515625	-0.5137759447097778	65.44268035888679	-1098.08349609375	209.5709228515625	70.21303558349616	-1056.402099609375	150.8293151855469	65.07598876953131	-965.4392700195312	362.6008605957031	830.7709350585939	-1191.603515625	214.0184173583984	779.3852539062501	-1190.403930664062	393.1079711914062	872.1274414062501	-1384.639404296875	328.8147888183594	755.5274047851564	-1449.532348632812	285.4341125488281	709.5911865234376	-1470.73876953125	324.7357482910156	689.9401855468751	-1443.792846679688	263.4948425292969	480.8924560546876	-1451.463134765625	229.8765106201172	427.1554565429689	-1468.547485351562	257.6580200195312	421.0109863281251	-1427.589477539062	216.1007843017578	335.4331665039064	-1454.956420898438	388.5240783691406	863.7484741210939	-1001.483459472656	317.9743347167969	714.7980346679689	-969.6835327148438	311.8987121582031	657.5646972656251	-1001.172790527344	294.0446472167969	655.0849609375001	-954.0400390625	249.4901885986328	466.8037719726563	-961.3508911132812	246.1851043701172	410.0260314941407	-992.154296875	226.2641448974609	408.9996337890626	-945.102783203125	208.8016510009766	335.4732360839844	-946.0715942382812	0.03615830093622208	0.007027859799563888	-0.0633917972445488	0.01830179989337921	0.06605560332536697	-0.06704679876565933	0.02196460030972958	0.02882069908082486	-0.05942250043153763	0.04215570166707039	2.12352991104126	-2.03590989112854	1.968369960784912	2.906280040740967	-1.892279982566833	2.757390022277832	0	0	
1243	6.21	133.1209716796875	245.9497833251955	-2314.265869140625	192.5747375488281	248.3990783691406	-91.65114593505858	573.8917236328125	784.6640014648439	-1172.5302734375	577.9439697265625	848.4143066406251	-1096.971313476562	580.8037719726562	845.1356201171876	-1252.568725585938	431.2418518066406	992.1390991210939	-1183.51220703125	234.1775665283203	1047.995727539062	-1198.108032226562	200.0889587402344	1053.626708984375	-1201.419555664062	138.7608642578125	1051.71337890625	-1150.0791015625	137.980712890625	1050.307373046875	-1199.855712890625	87.74943542480469	1038.953002929688	-1200.744873046875	28.99813270568848	1055.8876953125	-1203.400756835938	-29.29259872436523	1034.084106445312	-1153.34375	-31.04267692565918	1039.344604492188	-1203.137573242188	-105.487678527832	986.6073608398439	-1224.595947265625	-95.30931854248047	987.5142822265626	-1174.625610351562	-154.247314453125	961.1538696289064	-1187.43798828125	-4.659254550933838	723.8039550781251	-1443.85986328125	-19.71591186523438	645.5972290039064	-1434.960693359375	24.39462280273438	669.1341552734376	-1443.120727539062	76.54267120361328	340.6445922851564	-1444.44482421875	33.5210075378418	275.4145507812501	-1433.7001953125	82.91529083251953	279.4178466796876	-1436.085815429688	-2.26035213470459	65.55990600585946	-1337.300170898438	209.1073303222656	75.43702697753915	-1352.0361328125	159.4085693359375	53.04809951782236	-1455.099975585938	-2.954959869384766	686.3923339843751	-978.235595703125	69.36850738525391	653.1449584960939	-970.79833984375	24.83503150939941	630.6676635742189	-976.7183227539062	59.49760055541992	334.9679260253907	-978.2379150390625	97.48420715332031	265.3580322265626	-983.2205200195312	48.97953796386719	275.9151306152344	-991.6119384765625	-0.511699378490448	65.45800781250007	-1098.060546875	209.5820007324219	70.20590972900398	-1056.389282226562	150.8233795166016	65.05275726318365	-965.42822265625	362.7358703613281	831.2131347656251	-1191.691528320312	214.2961730957031	779.4978637695314	-1190.387573242188	392.8324584960938	872.7474975585939	-1384.846069335938	328.3941955566406	756.1113281250001	-1449.526123046875	284.9921569824219	710.1782226562501	-1470.697387695312	324.3155212402344	690.5274047851564	-1443.780151367188	263.258056640625	481.4367980957032	-1451.395629882812	229.7114105224609	427.6573486328126	-1468.460693359375	257.5525512695312	421.5433654785157	-1427.539794921875	216.1109313964844	335.8994140625001	-1454.878662109375	388.4862976074219	864.2990112304689	-1001.493591308594	317.7537536621094	715.3229370117189	-969.7849731445312	311.7259216308594	658.0886230468751	-1001.261474609375	293.8136291503906	655.6248779296876	-954.1469116210938	249.4658508300781	467.3032531738282	-961.4766235351562	246.211181640625	410.5279235839844	-992.2946166992188	226.3231506347656	409.4647216796876	-945.2150268554688	208.9137115478516	335.9085693359376	-946.225830078125	0.03511169925332069	0.006941199768334631	-0.06310039758682251	0.01880119927227497	0.06260649859905243	-0.06596779823303223	0.02195370011031628	0.0288052000105381	-0.05622449889779091	0.04410799965262413	2.121520042419434	-2.034029960632324	1.969059944152832	2.906450033187866	-1.892920017242431	2.75750994682312	0	0	
1244	6.215	133.2980804443359	245.8310852050783	-2314.259521484375	192.5974426269531	248.29150390625	-91.62158966064452	574.208251953125	785.3140258789064	-1172.552001953125	578.2681274414062	849.1242065429689	-1097.035888671875	581.0889892578125	845.7623901367189	-1252.650756835938	431.1830139160156	992.5276489257814	-1183.672607421875	234.0442504882812	1048.10986328125	-1198.075317382812	200.0254821777344	1053.634399414062	-1201.354248046875	138.7556762695312	1051.664794921875	-1149.943969726562	137.9221496582031	1050.23876953125	-1199.717041015625	87.88628387451172	1038.945434570312	-1200.547729492188	29.32435417175293	1055.823608398438	-1203.15869140625	-28.94775581359863	1034.069458007812	-1153.062133789062	-30.72632598876953	1039.32666015625	-1202.85546875	-105.2308883666992	986.7546386718751	-1224.2724609375	-95.01854705810547	987.6434936523439	-1174.297485351562	-153.9855804443359	961.3283691406251	-1187.066040039062	-4.770516395568848	723.9025268554689	-1443.669677734375	-19.86480903625488	645.7143554687501	-1434.689331054688	24.2517147064209	669.2182006835939	-1442.914672851562	76.40113067626953	340.6680603027345	-1444.296997070312	33.41904067993164	275.4077453613282	-1433.580688476562	82.81046295166016	279.4427795410157	-1435.9619140625	-2.274819135665894	65.54538726806649	-1337.288452148438	209.1042022705078	75.42720794677743	-1352.032592773438	159.4050598144531	53.04408645629892	-1455.102661132812	-2.696944236755371	686.4849853515626	-978.0192260742188	69.61138153076172	653.1778564453126	-970.6673583984375	25.05064392089844	630.7352294921876	-976.56396484375	59.6323127746582	334.9192810058594	-978.146728515625	97.61869812011719	265.3195495605469	-983.1709594726562	49.10300827026367	275.8723449707032	-991.5057373046875	-0.5092708468437195	65.4736633300782	-1098.038330078125	209.5940093994141	70.19764709472663	-1056.379150390625	150.8187408447266	65.0312118530274	-965.4197998046875	362.8716125488281	831.6125488281251	-1191.803344726562	214.5716705322266	779.5772094726564	-1190.391357421875	392.5651245117188	873.3341674804689	-1385.06103515625	328.0139465332031	756.6718139648439	-1449.534057617188	284.5970458984375	710.7427368164064	-1470.687622070312	323.93115234375	691.0915527343751	-1443.786254882812	263.0173645019531	481.9560852050782	-1451.365478515625	229.5434722900391	428.1347961425782	-1468.408081054688	257.443603515625	422.0550537109376	-1427.523559570312	216.1155090332031	336.3436889648439	-1454.823486328125	388.5007019042969	864.8050537109376	-1001.550659179688	317.6089477539062	715.8144531250001	-969.9201049804688	311.611328125	658.5759277343751	-1001.373046875	293.6761169433594	656.1281738281251	-954.2650146484375	249.4722595214844	467.7682495117188	-961.58447265625	246.2545928955078	410.9985351562501	-992.4198608398438	226.4053649902344	409.8985290527344	-945.3109741210938	209.0393676757812	336.3154296875001	-946.3633422851562	0.03406180068850517	0.006902069784700874	-0.0625431016087532	0.01943819969892502	0.05914080142974854	-0.06543689966201782	0.02192189916968346	0.02881200052797795	-0.05301779881119728	0.04603980109095573	2.120009899139404	-2.032150030136108	1.969900012016296	2.906589984893799	-1.893589973449707	2.757849931716919	0	0	
